<svg width="256" height="256" viewBox="0 0 256 256" fill="none" xmlns="http://www.w3.org/2000/svg">
  <defs>
    <linearGradient id="bg" x1="28" y1="24" x2="226" y2="232" gradientUnits="userSpaceOnUse">
      <stop stop-color="#071225"/>
      <stop offset="0.45" stop-color="#13224A"/>
      <stop offset="1" stop-color="#1D1146"/>
    </linearGradient>
    <linearGradient id="main" x1="54" y1="48" x2="186" y2="196" gradientUnits="userSpaceOnUse">
      <stop stop-color="#22D3EE"/>
      <stop offset="0.48" stop-color="#8B5CF6"/>
      <stop offset="1" stop-color="#EC4899"/>
    </linearGradient>
    <linearGradient id="accent" x1="124" y1="54" x2="208" y2="176" gradientUnits="userSpaceOnUse">
      <stop stop-color="#FDE047"/>
      <stop offset="1" stop-color="#F97316"/>
    </linearGradient>
    <filter id="glow" x="0" y="0" width="256" height="256" filterUnits="userSpaceOnUse" color-interpolation-filters="sRGB">
      <feFlood flood-opacity="0" result="BackgroundImageFix"/>
      <feBlend mode="normal" in="SourceGraphic" in2="BackgroundImageFix" result="shape"/>
      <feGaussianBlur stdDeviation="10" result="effect1_foregroundBlur"/>
    </filter>
  </defs>

  <rect x="12" y="12" width="232" height="232" rx="66" fill="url(#bg)"/>
  <rect x="12" y="12" width="232" height="232" rx="66" stroke="rgba(255,255,255,0.08)"/>

  <circle cx="128" cy="128" r="82" stroke="rgba(255,255,255,0.08)" stroke-width="2"/>
  <ellipse cx="128" cy="128" rx="96" ry="44" stroke="rgba(34,211,238,0.25)" stroke-width="2"/>
  <ellipse cx="128" cy="128" rx="48" ry="98" transform="rotate(28 128 128)" stroke="rgba(139,92,246,0.22)" stroke-width="2"/>

  <circle cx="74" cy="78" r="6" fill="#22D3EE"/>
  <circle cx="184" cy="70" r="6" fill="#A78BFA"/>
  <circle cx="188" cy="184" r="6" fill="#F472B6"/>

  <g filter="url(#glow)">
    <path d="M72 50H128L99 113H150L78 206L100 141H58L72 50Z" fill="url(#main)"/>
    <path d="M134 58H188L156 112H193L128 185L143 135H114L134 58Z" fill="url(#accent)" fill-opacity="0.98"/>
  </g>
</svg>
